<?xml version="1.0" encoding="utf-8"?>
<!-- Generator: Adobe Illustrator 19.1.0, SVG Export Plug-In . SVG Version: 6.00 Build 0)  -->
<svg version="1.1" id="Layer_1" xmlns="http://www.w3.org/2000/svg" xmlns:xlink="http://www.w3.org/1999/xlink" x="0px" y="0px"
	 viewBox="0 0 50 49.8" style="enable-background:new 0 0 50 49.8;" xml:space="preserve">
<style type="text/css">
	.st0{opacity:0.5;}
	.st1{fill:#FFD600;}
	.st2{fill:#424242;}
	.st3{fill:#FFD600;stroke:#FFD600;stroke-width:0.25;stroke-miterlimit:10;}
</style>
<g>
	<g class="st0">
		<circle class="st1" cx="25" cy="24.9" r="25"/>
	</g>
	<circle class="st2" cx="25" cy="24.9" r="20"/>
	<path class="st3" d="M36.7,27.4c-0.4-4.2-3.1-7.9-7-9.6L29.6,18l0.2-1.5l-0.5-0.2c-2.8-1-5.8-0.9-8.6,0l-0.5,0.2l0.2,1.5l-0.1-0.3
		c-3.9,1.7-6.5,5.4-6.9,9.6h-1.2v4.8h25.6v-4.8L36.7,27.4z M20.6,19.1l0.5,3.3l1.3-0.2l-0.7-4.8c2.1-0.6,4.5-0.7,6.6,0l-0.7,4.8
		l1.3,0.2l0.5-3.4c3.3,1.5,5.6,4.7,6,8.3H14.7C15.1,23.8,17.3,20.7,20.6,19.1z M36.4,30.8H13.6v-2.1h22.9V30.8z"/>
</g>
</svg>
