<?xml version="1.0" encoding="utf-8"?>
<!-- Generator: Adobe Illustrator 19.1.0, SVG Export Plug-In . SVG Version: 6.00 Build 0)  -->
<svg version="1.1" id="Layer_1" xmlns="http://www.w3.org/2000/svg" xmlns:xlink="http://www.w3.org/1999/xlink" x="0px" y="0px"
	 viewBox="0 0 51.1 50.8" style="enable-background:new 0 0 51.1 50.8;" xml:space="preserve">
<style type="text/css">
	.st0{fill:#9B9B9B;}
</style>
<g>
	<g>
		<path class="st0" d="M25.5,50.4c-13.8,0-25-11.2-25-25s11.2-25,25-25s25,11.2,25,25S39.3,50.4,25.5,50.4z M25.5,4.3
			c-11.7,0-21.2,9.5-21.2,21.2s9.5,21.2,21.2,21.2s21.2-9.5,21.2-21.2S37.2,4.3,25.5,4.3z"/>
		<path class="st0" d="M22.4,33.7c-0.5,0-1-0.2-1.4-0.6l-6.3-6.3c-0.8-0.8-0.8-2,0-2.7c0.8-0.8,2-0.8,2.7,0l4.9,4.9l11.2-11.2
			c0.8-0.8,2-0.8,2.7,0c0.8,0.8,0.8,2,0,2.7L23.7,33.1C23.4,33.5,22.9,33.7,22.4,33.7z"/>
	</g>
</g>
</svg>
