<?xml version="1.0" encoding="utf-8"?>
<!-- Generator: Adobe Illustrator 19.1.0, SVG Export Plug-In . SVG Version: 6.00 Build 0)  -->
<svg version="1.1" id="Layer_1" xmlns="http://www.w3.org/2000/svg" xmlns:xlink="http://www.w3.org/1999/xlink" x="0px" y="0px"
	 viewBox="0 0 50 50" style="enable-background:new 0 0 50 50;" xml:space="preserve">
<style type="text/css">
	.st0{fill:#66BB6A;}
</style>
<g>
	<g>
		<path class="st0" d="M25,49.5c-13.5,0-24.5-11-24.5-24.5S11.5,0.5,25,0.5s24.5,11,24.5,24.5S38.5,49.5,25,49.5z M25,4.3
			C13.6,4.3,4.3,13.6,4.3,25S13.6,45.7,25,45.7S45.7,36.4,45.7,25S36.4,4.3,25,4.3z"/>
		<path class="st0" d="M21.9,33.1c-0.5,0-1-0.2-1.3-0.6l-6.2-6.2c-0.7-0.7-0.7-1.9,0-2.7c0.7-0.7,1.9-0.7,2.7,0l4.8,4.8l11-11
			c0.7-0.7,1.9-0.7,2.7,0c0.7,0.7,0.7,1.9,0,2.7L23.2,32.5C22.9,32.9,22.4,33.1,21.9,33.1z"/>
	</g>
</g>
</svg>
