<?xml version="1.0" encoding="utf-8"?>
<!-- Generator: Adobe Illustrator 19.1.0, SVG Export Plug-In . SVG Version: 6.00 Build 0)  -->
<svg version="1.1" id="Layer_1" xmlns="http://www.w3.org/2000/svg" xmlns:xlink="http://www.w3.org/1999/xlink" x="0px" y="0px"
	 viewBox="0 0 31.3 45.3" style="enable-background:new 0 0 31.3 45.3;" xml:space="preserve">
<style type="text/css">
	.st0{fill:#9B9B9B;}
</style>
<path class="st0" d="M15.7,0.1C7.2,0.1,0.4,7,0.4,15.4c0,0.2,0,0.4,0,0.6c0.1,1.6,0.4,3.1,0.9,4.6c3.3,10.7,14.4,24.7,14.4,24.7
	s11.1-14,14.4-24.7c0.5-1.4,0.8-3,0.9-4.6c0-0.2,0-0.4,0-0.6C30.9,7,24.1,0.1,15.7,0.1z M15.7,22.9c-4.1,0-7.5-3.4-7.5-7.5
	c0-4.1,3.4-7.5,7.5-7.5c4.1,0,7.5,3.4,7.5,7.5C23.2,19.5,19.8,22.9,15.7,22.9z"/>
</svg>
